<?xml version="1.0" encoding="UTF-8" standalone="no"?>
<!-- Created with Inkscape (http://www.inkscape.org/) -->

<svg
   width="30mm"
   height="30mm"
   viewBox="0 0 30 30"
   version="1.1"
   id="svg1"
   inkscape:version="1.4.2 (f4327f4, 2025-05-13)"
   sodipodi:docname="GrizzleLogoRounded.svg"
   xmlns:inkscape="http://www.inkscape.org/namespaces/inkscape"
   xmlns:sodipodi="http://sodipodi.sourceforge.net/DTD/sodipodi-0.dtd"
   xmlns="http://www.w3.org/2000/svg"
   xmlns:svg="http://www.w3.org/2000/svg">
  <sodipodi:namedview
     id="namedview1"
     pagecolor="#ffffff"
     bordercolor="#000000"
     borderopacity="0.25"
     inkscape:showpageshadow="2"
     inkscape:pageopacity="0.0"
     inkscape:pagecheckerboard="true"
     inkscape:deskcolor="#d1d1d1"
     inkscape:document-units="px"
     showguides="true"
     inkscape:zoom="3.9811461"
     inkscape:cx="48.227318"
     inkscape:cy="50.990342"
     inkscape:window-width="1920"
     inkscape:window-height="992"
     inkscape:window-x="-8"
     inkscape:window-y="-8"
     inkscape:window-maximized="1"
     inkscape:current-layer="layer7"
     showborder="false" />
  <defs
     id="defs1" />
  <g
     inkscape:groupmode="layer"
     id="layer9"
     inkscape:label="Layer 1" />
  <g
     inkscape:groupmode="layer"
     id="layer7"
     inkscape:label="Layer 6"
     style="display:inline"
     transform="translate(-25.507824,-8.6434862)">
    <path
       id="rect34"
       style="fill:#f2ca50;fill-opacity:1;stroke-width:1.09986"
       d="m 40.499841,8.6434862 c -7.06781,1.837e-4 -14.99227,7.9263508 -14.992017,14.9941608 2.53e-4,7.067304 7.924713,14.991761 14.992017,14.992013 7.067808,2.52e-4 15.000576,-7.924208 14.994157,-14.992013 -4.87e-4,-0.536706 -0.357366,-0.795296 -0.511593,-0.954066 -0.182733,-0.188114 -0.387735,-0.359241 -0.502955,-0.458074 -0.05607,-0.04809 -0.285643,-0.246103 -0.288043,-0.248593 -2.582264,-2.582265 -7.265564,0.232028 -10.917437,0.232027 -0.817017,0 -2.196415,-0.295756 -2.774133,0.281962 -0.07894,0.07894 0,0.223267 0,0.334901 v 1.16467 c 0,1.08119 -0.998799,2.829598 0,3.24357 1.06692,0.442207 1.383937,-2.007167 2.451051,-2.448906 2.065539,-0.855044 5.851065,-2.065348 6.706561,4e-6 1.652019,3.988332 -4.840673,9.157608 -9.157612,9.157608 -4.857694,-10e-7 -10.304725,-5.447031 -10.304725,-10.304725 0,-4.857694 5.447031,-10.304727 10.304725,-10.304727 2.411125,0 2.887178,4.19207 5.114767,5.114768 1.444158,0.59819 4.091233,1.444152 4.689437,0 1.768741,-4.270001 -5.182366,-9.8047029 -9.8042,-9.8045828 z"
       sodipodi:nodetypes="sssssssssssssssssssss" />
  </g>
</svg>
